<svg width="340" height="180" viewBox="0 0 340 180" fill="none" xmlns="http://www.w3.org/2000/svg">
<rect width="340" height="180" rx="12" fill="url(#paint0_linear)"/>
<g filter="url(#filter0_d)">
<path d="M108.2 57.236C108.2 55.9747 108.523 54.904 109.168 54.024C109.843 53.144 110.752 52.4693 111.896 52C112.043 51.9413 112.145 51.9853 112.204 52.132C112.263 52.2787 112.248 52.4107 112.16 52.528C111.632 52.8213 111.207 53.276 110.884 53.892C110.591 54.508 110.444 55.256 110.444 56.136C110.444 57.9253 111.104 59.3333 112.424 60.36C113.744 61.3867 115.46 61.9 117.572 61.9C120.329 61.9 122.295 61.3573 123.468 60.272C124.671 59.1867 125.272 57.764 125.272 56.004C125.272 54.3613 124.935 52.924 124.26 51.692C123.585 50.4307 122.837 49.2573 122.016 48.172C121.224 47.0573 120.491 45.9427 119.816 44.828C119.141 43.7133 118.804 42.452 118.804 41.044C118.804 40.2227 118.98 39.4307 119.332 38.668C119.713 37.9053 120.227 37.2307 120.872 36.644C121.547 36.028 122.339 35.544 123.248 35.192C124.157 34.84 125.155 34.664 126.24 34.664C127.736 34.664 128.909 34.9867 129.76 35.632C130.64 36.248 131.08 36.996 131.08 37.876C131.08 38.3747 130.86 38.9907 130.42 39.724C130.009 40.428 129.584 41.044 129.144 41.572C129.027 41.6307 128.924 41.616 128.836 41.528C128.748 41.44 128.719 41.3373 128.748 41.22C128.895 40.9853 129.012 40.7067 129.1 40.384C129.217 40.032 129.276 39.6507 129.276 39.24C129.276 38.7707 129.173 38.3307 128.968 37.92C128.763 37.48 128.469 37.1133 128.088 36.82C127.707 36.4973 127.267 36.248 126.768 36.072C126.269 35.8667 125.741 35.764 125.184 35.764C123.717 35.764 122.647 36.116 121.972 36.82C121.297 37.524 120.96 38.4333 120.96 39.548C120.96 40.428 121.121 41.264 121.444 42.056C121.796 42.8187 122.221 43.596 122.72 44.388C123.219 45.1507 123.747 45.928 124.304 46.72C124.891 47.4827 125.433 48.2893 125.932 49.14C126.431 49.9613 126.841 50.8413 127.164 51.78C127.516 52.6893 127.692 53.6867 127.692 54.772C127.692 55.916 127.399 56.9867 126.812 57.984C126.255 58.9813 125.477 59.8613 124.48 60.624C123.483 61.3573 122.324 61.944 121.004 62.384C119.684 62.7947 118.261 63 116.736 63C113.949 63 111.823 62.4573 110.356 61.372C108.919 60.2867 108.2 58.908 108.2 57.236ZM148.711 30.308C149.151 30.308 149.503 30.4253 149.767 30.66C150.06 30.8653 150.251 31.1587 150.339 31.54C150.456 31.892 150.471 32.3027 150.383 32.772C150.324 33.2413 150.163 33.7107 149.899 34.18C149.84 34.2387 149.767 34.2387 149.679 34.18C149.591 34.1213 149.532 34.048 149.503 33.96C149.561 33.608 149.429 33.3147 149.107 33.08C148.813 32.8453 148.344 32.728 147.699 32.728C146.496 32.728 145.279 33.1827 144.047 34.092C142.844 34.972 141.671 36.1453 140.527 37.612C139.383 39.0787 138.312 40.7653 137.315 42.672C136.317 44.5787 135.452 46.544 134.719 48.568C133.985 50.592 133.399 52.6013 132.959 54.596C132.548 56.5907 132.343 58.4093 132.343 60.052C132.343 60.932 132.592 61.372 133.091 61.372C133.443 61.372 133.78 61.2253 134.103 60.932C134.455 60.6387 134.851 60.1987 135.291 59.612C135.379 59.5533 135.452 59.568 135.511 59.656C135.599 59.7147 135.628 59.8027 135.599 59.92C135.012 60.8 134.323 61.5333 133.531 62.12C132.739 62.7067 132.02 63 131.375 63C130.817 63 130.421 62.8387 130.187 62.516C129.981 62.1933 129.879 61.7827 129.879 61.284C129.879 59.9053 130.172 58.1893 130.759 56.136C131.345 54.0533 132.123 51.868 133.091 49.58C134.088 47.2627 135.232 44.96 136.523 42.672C137.813 40.384 139.148 38.3307 140.527 36.512C141.935 34.664 143.343 33.168 144.751 32.024C146.159 30.88 147.479 30.308 148.711 30.308ZM148.552 60.228C148.61 60.1693 148.684 60.1693 148.772 60.228C148.86 60.2867 148.889 60.3747 148.86 60.492C148.332 61.2547 147.745 61.8707 147.1 62.34C146.454 62.78 145.838 63 145.252 63C144.577 63 144.137 62.5307 143.932 61.592C143.756 60.624 143.858 59.48 144.24 58.16C143.448 59.4213 142.582 60.5067 141.644 61.416C140.734 62.296 139.766 62.824 138.74 63C138.036 63 137.493 62.6773 137.112 62.032C136.73 61.3867 136.54 60.6387 136.54 59.788C136.54 58.82 136.774 57.8667 137.244 56.928C137.713 55.96 138.329 55.0947 139.092 54.332C139.884 53.5693 140.749 52.9533 141.688 52.484C142.656 51.9853 143.624 51.736 144.592 51.736C145.618 51.736 146.425 51.9853 147.012 52.484C147.305 52.2787 147.672 52.1027 148.112 51.956C148.581 51.8093 148.992 51.736 149.344 51.736C149.461 51.736 149.52 51.8093 149.52 51.956C148.845 52.7773 148.258 53.6867 147.76 54.684C147.29 55.652 146.924 56.5907 146.66 57.5C146.396 58.38 146.234 59.172 146.176 59.876C146.117 60.58 146.176 61.064 146.352 61.328C146.498 61.504 146.748 61.5627 147.1 61.504C147.452 61.416 147.936 60.9907 148.552 60.228ZM140.104 61.372C140.456 61.372 140.881 61.152 141.38 60.712C141.908 60.272 142.45 59.6853 143.008 58.952C143.565 58.2187 144.108 57.3973 144.636 56.488C145.193 55.5787 145.677 54.6547 146.088 53.716C145.97 53.3347 145.692 53.0267 145.252 52.792C144.841 52.5573 144.357 52.44 143.8 52.44C143.125 52.44 142.494 52.616 141.908 52.968C141.321 53.2907 140.808 53.76 140.368 54.376C139.957 54.9627 139.62 55.6813 139.356 56.532C139.121 57.3533 139.004 58.2627 139.004 59.26C139.004 59.9053 139.106 60.4187 139.312 60.8C139.546 61.1813 139.81 61.372 140.104 61.372ZM166.642 53.76C166.642 53.144 166.422 52.836 165.982 52.836C165.102 52.836 164.061 53.6573 162.858 55.3C161.656 56.9133 160.541 59.2307 159.514 62.252C159.456 62.428 159.206 62.604 158.766 62.78C158.356 62.9267 157.96 63 157.578 63C157.226 63 157.094 62.868 157.182 62.604C157.358 62.076 157.593 61.416 157.886 60.624C158.209 59.832 158.502 59.0253 158.766 58.204C159.06 57.3533 159.309 56.5613 159.514 55.828C159.72 55.0653 159.822 54.4787 159.822 54.068C159.822 53.276 159.573 52.88 159.074 52.88C158.312 52.88 157.344 53.672 156.17 55.256C155.026 56.8107 153.912 59.1427 152.826 62.252C152.768 62.428 152.533 62.604 152.122 62.78C151.712 62.9267 151.345 63 151.022 63C150.876 63 150.758 62.9707 150.67 62.912C150.582 62.8533 150.568 62.7507 150.626 62.604C150.861 61.9587 151.11 61.2547 151.374 60.492C151.638 59.7 151.902 58.908 152.166 58.116C152.43 57.324 152.665 56.5467 152.87 55.784C153.105 55.0213 153.31 54.3027 153.486 53.628C153.574 53.1 153.486 52.836 153.222 52.836C152.988 52.836 152.709 52.9973 152.386 53.32C152.064 53.6427 151.741 54.024 151.418 54.464C151.33 54.5227 151.242 54.5227 151.154 54.464C151.066 54.376 151.052 54.288 151.11 54.2C151.55 53.5253 152.078 52.9533 152.694 52.484C153.31 51.9853 153.97 51.736 154.674 51.736C155.144 51.736 155.452 51.8827 155.598 52.176C155.774 52.4693 155.818 52.8213 155.73 53.232C155.613 53.8773 155.496 54.42 155.378 54.86C155.261 55.3 155.1 55.7987 154.894 56.356C155.657 55.0067 156.493 53.9067 157.402 53.056C158.341 52.176 159.338 51.736 160.394 51.736C160.922 51.736 161.318 51.8827 161.582 52.176C161.876 52.4693 162.022 52.8213 162.022 53.232C162.022 54.376 161.817 55.5347 161.406 56.708C162.345 55.0947 163.254 53.8627 164.134 53.012C165.044 52.1613 166.129 51.736 167.39 51.736C167.977 51.736 168.388 51.8973 168.622 52.22C168.886 52.5133 169.018 52.8213 169.018 53.144C169.018 53.6427 168.901 54.2 168.666 54.816C168.461 55.4027 168.212 56.0333 167.918 56.708C167.654 57.3533 167.405 58.0133 167.17 58.688C166.965 59.3333 166.862 59.964 166.862 60.58C166.862 61.3133 167.097 61.68 167.566 61.68C168.036 61.68 168.666 61.196 169.458 60.228C169.546 60.1693 169.62 60.184 169.678 60.272C169.766 60.36 169.781 60.4627 169.722 60.58C169.136 61.3133 168.534 61.9 167.918 62.34C167.302 62.78 166.701 63 166.114 63C165.146 63 164.662 62.4427 164.662 61.328C164.662 60.624 164.765 59.92 164.97 59.216C165.176 58.4827 165.396 57.7933 165.63 57.148C165.894 56.4733 166.129 55.8427 166.334 55.256C166.54 54.6693 166.642 54.1707 166.642 53.76ZM193.039 29.736C193.596 29.736 194.065 29.868 194.447 30.132C194.828 30.3667 195.121 30.6893 195.327 31.1C195.532 31.5107 195.649 31.98 195.679 32.508C195.708 33.0067 195.664 33.5347 195.547 34.092C195.371 34.2093 195.239 34.1947 195.151 34.048C195.063 33.4613 194.755 32.9627 194.227 32.552C193.699 32.112 192.921 31.892 191.895 31.892C190.252 31.892 188.727 32.3027 187.319 33.124C185.911 33.9453 184.576 35.28 183.315 37.128C182.083 38.9467 180.895 41.3227 179.751 44.256C178.636 47.16 177.536 50.7093 176.451 54.904C176.656 54.5813 176.935 54.244 177.287 53.892C177.668 53.5107 178.093 53.1587 178.563 52.836C179.032 52.5133 179.516 52.2493 180.015 52.044C180.543 51.8387 181.056 51.736 181.555 51.736C182.171 51.736 182.669 52.0147 183.051 52.572C183.432 53.1293 183.623 53.7893 183.623 54.552C183.623 55.6667 183.344 56.7373 182.787 57.764C182.229 58.7613 181.525 59.656 180.675 60.448C179.824 61.2107 178.9 61.8267 177.903 62.296C176.905 62.7653 175.967 63 175.087 63C174.353 63 173.84 62.824 173.547 62.472C173.253 62.12 173.107 61.6213 173.107 60.976C173.107 60.1547 173.209 59.1867 173.415 58.072C173.649 56.928 173.957 55.7253 174.339 54.464C174.72 53.1733 175.175 51.8387 175.703 50.46C176.26 49.052 176.847 47.6733 177.463 46.324C179.956 40.956 182.479 36.8493 185.031 34.004C187.612 31.1587 190.281 29.736 193.039 29.736ZM180.059 53.188C179.619 53.188 179.149 53.3347 178.651 53.628C178.152 53.892 177.683 54.3173 177.243 54.904C176.803 55.4613 176.421 56.1653 176.099 57.016C175.805 57.8667 175.615 58.8493 175.527 59.964C175.468 60.6093 175.541 61.064 175.747 61.328C175.981 61.592 176.319 61.724 176.759 61.724C177.316 61.724 177.873 61.548 178.431 61.196C178.988 60.8147 179.487 60.3307 179.927 59.744C180.396 59.128 180.763 58.4533 181.027 57.72C181.32 56.9867 181.467 56.2533 181.467 55.52C181.467 54.6693 181.335 54.068 181.071 53.716C180.807 53.364 180.469 53.188 180.059 53.188ZM191.821 51.736C192.848 51.736 193.611 52.044 194.109 52.66C194.608 53.276 194.857 53.9947 194.857 54.816C194.857 55.96 194.623 57.0307 194.153 58.028C193.713 58.996 193.156 59.8613 192.481 60.624C191.836 61.3573 191.132 61.944 190.369 62.384C189.607 62.7947 188.917 63 188.301 63C187.304 63 186.541 62.7067 186.013 62.12C185.515 61.504 185.265 60.7267 185.265 59.788C185.265 58.9373 185.441 58.0427 185.793 57.104C186.175 56.1653 186.659 55.3 187.245 54.508C187.861 53.716 188.565 53.056 189.357 52.528C190.149 52 190.971 51.736 191.821 51.736ZM189.401 61.636C190.311 61.636 191.073 61.1667 191.689 60.228C192.335 59.26 192.657 57.94 192.657 56.268C192.657 55.388 192.481 54.6547 192.129 54.068C191.777 53.4813 191.264 53.188 190.589 53.188C189.651 53.188 188.888 53.6427 188.301 54.552C187.715 55.4613 187.421 56.796 187.421 58.556C187.421 59.5827 187.597 60.36 187.949 60.888C188.331 61.3867 188.815 61.636 189.401 61.636ZM203.165 51.736C204.192 51.736 204.954 52.044 205.453 52.66C205.952 53.276 206.201 53.9947 206.201 54.816C206.201 55.96 205.966 57.0307 205.497 58.028C205.057 58.996 204.5 59.8613 203.825 60.624C203.18 61.3573 202.476 61.944 201.713 62.384C200.95 62.7947 200.261 63 199.645 63C198.648 63 197.885 62.7067 197.357 62.12C196.858 61.504 196.609 60.7267 196.609 59.788C196.609 58.9373 196.785 58.0427 197.137 57.104C197.518 56.1653 198.002 55.3 198.589 54.508C199.205 53.716 199.909 53.056 200.701 52.528C201.493 52 202.314 51.736 203.165 51.736ZM200.745 61.636C201.654 61.636 202.417 61.1667 203.033 60.228C203.678 59.26 204.001 57.94 204.001 56.268C204.001 55.388 203.825 54.6547 203.473 54.068C203.121 53.4813 202.608 53.188 201.933 53.188C200.994 53.188 200.232 53.6427 199.645 54.552C199.058 55.4613 198.765 56.796 198.765 58.556C198.765 59.5827 198.941 60.36 199.293 60.888C199.674 61.3867 200.158 61.636 200.745 61.636ZM214.377 57.192C214.699 58.7467 215.11 59.9493 215.609 60.8C216.137 61.6213 216.767 62.032 217.501 62.032C217.823 62.032 218.117 61.9587 218.381 61.812C218.645 61.6653 218.938 61.3867 219.261 60.976C219.349 60.9467 219.422 60.976 219.481 61.064C219.569 61.1227 219.598 61.196 219.569 61.284C218.659 62.428 217.515 63 216.137 63C215.022 63 214.171 62.516 213.585 61.548C213.027 60.5507 212.573 59.0693 212.221 57.104C212.133 56.8693 212.191 56.7227 212.397 56.664C212.925 56.7813 213.453 56.796 213.981 56.708C214.509 56.62 214.978 56.4587 215.389 56.224C215.829 55.9893 216.166 55.6813 216.401 55.3C216.665 54.9187 216.797 54.4933 216.797 54.024C216.797 53.2907 216.43 52.924 215.697 52.924C214.67 52.924 213.717 53.4227 212.837 54.42C211.957 55.388 211.311 56.8253 210.901 58.732C210.754 59.2307 210.622 59.7587 210.505 60.316C210.387 60.844 210.285 61.3133 210.197 61.724C210.138 61.9587 210.079 62.1347 210.021 62.252C209.962 62.34 209.83 62.4427 209.625 62.56C209.39 62.6773 209.097 62.78 208.745 62.868C208.393 62.956 208.129 63 207.953 63C207.747 63 207.659 62.8533 207.689 62.56C208.305 59.304 209.082 56.2387 210.021 53.364C210.989 50.46 212.059 47.7907 213.233 45.356C214.406 42.9213 215.653 40.736 216.973 38.8C218.322 36.864 219.671 35.236 221.021 33.916C222.37 32.5667 223.705 31.54 225.025 30.836C226.345 30.1027 227.591 29.736 228.765 29.736C229.498 29.736 230.07 29.8827 230.481 30.176C230.921 30.4693 231.214 30.8507 231.361 31.32C231.507 31.76 231.522 32.244 231.405 32.772C231.317 33.3 231.111 33.784 230.789 34.224C230.583 34.4293 230.451 34.3853 230.393 34.092C230.539 33.5053 230.393 32.9333 229.953 32.376C229.513 31.8187 228.779 31.54 227.753 31.54C226.169 31.54 224.629 32.0093 223.133 32.948C221.666 33.8573 220.243 35.2947 218.865 37.26C217.486 39.196 216.166 41.6893 214.905 44.74C213.673 47.7613 212.514 51.384 211.429 55.608C211.986 54.5227 212.719 53.6133 213.629 52.88C214.567 52.1173 215.667 51.736 216.929 51.736C217.779 51.736 218.337 51.956 218.601 52.396C218.894 52.8067 219.041 53.2173 219.041 53.628C219.041 54.5667 218.601 55.3733 217.721 56.048C216.841 56.6933 215.726 57.0747 214.377 57.192Z" fill="white"/>
</g>
<path d="M92.9785 104.721C92.9785 105.475 92.7051 106.062 92.1582 106.484C91.6113 106.906 90.8691 107.117 89.9316 107.117C88.916 107.117 88.1348 106.986 87.5879 106.725V105.764C87.9395 105.912 88.3223 106.029 88.7363 106.115C89.1504 106.201 89.5605 106.244 89.9668 106.244C90.6309 106.244 91.1309 106.119 91.4668 105.869C91.8027 105.615 91.9707 105.264 91.9707 104.814C91.9707 104.518 91.9102 104.275 91.7891 104.088C91.6719 103.896 91.4727 103.721 91.1914 103.561C90.9141 103.4 90.4902 103.219 89.9199 103.016C89.123 102.73 88.5527 102.393 88.209 102.002C87.8691 101.611 87.6992 101.102 87.6992 100.473C87.6992 99.8125 87.9473 99.2871 88.4434 98.8965C88.9395 98.5059 89.5957 98.3105 90.4121 98.3105C91.2637 98.3105 92.0469 98.4668 92.7617 98.7793L92.4512 99.6465C91.7441 99.3496 91.0566 99.2012 90.3887 99.2012C89.8613 99.2012 89.4492 99.3145 89.1523 99.541C88.8555 99.7676 88.707 100.082 88.707 100.484C88.707 100.781 88.7617 101.025 88.8711 101.217C88.9805 101.404 89.1641 101.578 89.4219 101.738C89.6836 101.895 90.082 102.068 90.6172 102.26C91.5156 102.58 92.1328 102.924 92.4688 103.291C92.8086 103.658 92.9785 104.135 92.9785 104.721ZM98.5332 107L98.3398 106.086H98.293C97.9727 106.488 97.6523 106.762 97.332 106.906C97.0156 107.047 96.6191 107.117 96.1426 107.117C95.5059 107.117 95.0059 106.953 94.6426 106.625C94.2832 106.297 94.1035 105.83 94.1035 105.225C94.1035 103.928 95.1406 103.248 97.2148 103.186L98.3047 103.15V102.752C98.3047 102.248 98.1953 101.877 97.9766 101.639C97.7617 101.396 97.416 101.275 96.9395 101.275C96.4043 101.275 95.7988 101.439 95.123 101.768L94.8242 101.023C95.1406 100.852 95.4863 100.717 95.8613 100.619C96.2402 100.521 96.6191 100.473 96.998 100.473C97.7637 100.473 98.3301 100.643 98.6973 100.982C99.0684 101.322 99.2539 101.867 99.2539 102.617V107H98.5332ZM96.3359 106.314C96.9414 106.314 97.416 106.148 97.7598 105.816C98.1074 105.484 98.2812 105.02 98.2812 104.422V103.842L97.3086 103.883C96.5352 103.91 95.9766 104.031 95.6328 104.246C95.293 104.457 95.123 104.787 95.123 105.236C95.123 105.588 95.2285 105.855 95.4395 106.039C95.6543 106.223 95.9531 106.314 96.3359 106.314ZM102.67 107L100.232 100.578H101.275L102.658 104.387C102.971 105.277 103.154 105.855 103.209 106.121H103.256C103.299 105.914 103.434 105.486 103.66 104.838C103.891 104.186 104.404 102.766 105.201 100.578H106.244L103.807 107H102.67ZM109.988 107.117C109.039 107.117 108.289 106.828 107.738 106.25C107.191 105.672 106.918 104.869 106.918 103.842C106.918 102.807 107.172 101.984 107.68 101.375C108.191 100.766 108.877 100.461 109.736 100.461C110.541 100.461 111.178 100.727 111.646 101.258C112.115 101.785 112.35 102.482 112.35 103.35V103.965H107.926C107.945 104.719 108.135 105.291 108.494 105.682C108.857 106.072 109.367 106.268 110.023 106.268C110.715 106.268 111.398 106.123 112.074 105.834V106.701C111.73 106.85 111.404 106.955 111.096 107.018C110.791 107.084 110.422 107.117 109.988 107.117ZM109.725 101.275C109.209 101.275 108.797 101.443 108.488 101.779C108.184 102.115 108.004 102.58 107.949 103.174H111.307C111.307 102.561 111.17 102.092 110.896 101.768C110.623 101.439 110.232 101.275 109.725 101.275ZM116.111 100.578H117.154L118.561 104.24C118.869 105.076 119.061 105.68 119.135 106.051H119.182C119.232 105.852 119.338 105.512 119.498 105.031C119.662 104.547 120.193 103.062 121.092 100.578H122.135L119.375 107.891C119.102 108.613 118.781 109.125 118.414 109.426C118.051 109.73 117.604 109.883 117.072 109.883C116.775 109.883 116.482 109.85 116.193 109.783V109.004C116.408 109.051 116.648 109.074 116.914 109.074C117.582 109.074 118.059 108.699 118.344 107.949L118.701 107.035L116.111 100.578ZM128.721 103.783C128.721 104.83 128.457 105.648 127.93 106.238C127.402 106.824 126.674 107.117 125.744 107.117C125.17 107.117 124.66 106.982 124.215 106.713C123.77 106.443 123.426 106.057 123.184 105.553C122.941 105.049 122.82 104.459 122.82 103.783C122.82 102.736 123.082 101.922 123.605 101.34C124.129 100.754 124.855 100.461 125.785 100.461C126.684 100.461 127.396 100.76 127.924 101.357C128.455 101.955 128.721 102.764 128.721 103.783ZM123.828 103.783C123.828 104.604 123.992 105.229 124.32 105.658C124.648 106.088 125.131 106.303 125.768 106.303C126.404 106.303 126.887 106.09 127.215 105.664C127.547 105.234 127.713 104.607 127.713 103.783C127.713 102.967 127.547 102.348 127.215 101.926C126.887 101.5 126.4 101.287 125.756 101.287C125.119 101.287 124.639 101.496 124.314 101.914C123.99 102.332 123.828 102.955 123.828 103.783ZM131.346 100.578V104.744C131.346 105.268 131.465 105.658 131.703 105.916C131.941 106.174 132.314 106.303 132.822 106.303C133.494 106.303 133.984 106.119 134.293 105.752C134.605 105.385 134.762 104.785 134.762 103.953V100.578H135.734V107H134.932L134.791 106.139H134.738C134.539 106.455 134.262 106.697 133.906 106.865C133.555 107.033 133.152 107.117 132.699 107.117C131.918 107.117 131.332 106.932 130.941 106.561C130.555 106.189 130.361 105.596 130.361 104.779V100.578H131.346ZM140.732 100.461C141.018 100.461 141.273 100.484 141.5 100.531L141.365 101.434C141.1 101.375 140.865 101.346 140.662 101.346C140.143 101.346 139.697 101.557 139.326 101.979C138.959 102.4 138.775 102.926 138.775 103.555V107H137.803V100.578H138.605L138.717 101.768H138.764C139.002 101.35 139.289 101.027 139.625 100.801C139.961 100.574 140.33 100.461 140.732 100.461ZM148.807 107.117C148.389 107.117 148.006 107.041 147.658 106.889C147.314 106.732 147.025 106.494 146.791 106.174H146.721C146.768 106.549 146.791 106.904 146.791 107.24V109.883H145.818V100.578H146.609L146.744 101.457H146.791C147.041 101.105 147.332 100.852 147.664 100.695C147.996 100.539 148.377 100.461 148.807 100.461C149.658 100.461 150.314 100.752 150.775 101.334C151.24 101.916 151.473 102.732 151.473 103.783C151.473 104.838 151.236 105.658 150.764 106.244C150.295 106.826 149.643 107.117 148.807 107.117ZM148.666 101.287C148.01 101.287 147.535 101.469 147.242 101.832C146.949 102.195 146.799 102.773 146.791 103.566V103.783C146.791 104.686 146.941 105.332 147.242 105.723C147.543 106.109 148.025 106.303 148.689 106.303C149.244 106.303 149.678 106.078 149.99 105.629C150.307 105.18 150.465 104.561 150.465 103.771C150.465 102.971 150.307 102.357 149.99 101.932C149.678 101.502 149.236 101.287 148.666 101.287ZM156.107 100.461C156.393 100.461 156.648 100.484 156.875 100.531L156.74 101.434C156.475 101.375 156.24 101.346 156.037 101.346C155.518 101.346 155.072 101.557 154.701 101.979C154.334 102.4 154.15 102.926 154.15 103.555V107H153.178V100.578H153.98L154.092 101.768H154.139C154.377 101.35 154.664 101.027 155 100.801C155.336 100.574 155.705 100.461 156.107 100.461ZM160.789 107.117C159.84 107.117 159.09 106.828 158.539 106.25C157.992 105.672 157.719 104.869 157.719 103.842C157.719 102.807 157.973 101.984 158.48 101.375C158.992 100.766 159.678 100.461 160.537 100.461C161.342 100.461 161.979 100.727 162.447 101.258C162.916 101.785 163.15 102.482 163.15 103.35V103.965H158.727C158.746 104.719 158.936 105.291 159.295 105.682C159.658 106.072 160.168 106.268 160.824 106.268C161.516 106.268 162.199 106.123 162.875 105.834V106.701C162.531 106.85 162.205 106.955 161.896 107.018C161.592 107.084 161.223 107.117 160.789 107.117ZM160.525 101.275C160.01 101.275 159.598 101.443 159.289 101.779C158.984 102.115 158.805 102.58 158.75 103.174H162.107C162.107 102.561 161.971 102.092 161.697 101.768C161.424 101.439 161.033 101.275 160.525 101.275ZM166.221 107L163.783 100.578H164.826L166.209 104.387C166.521 105.277 166.705 105.855 166.76 106.121H166.807C166.85 105.914 166.984 105.486 167.211 104.838C167.441 104.186 167.955 102.766 168.752 100.578H169.795L167.357 107H166.221ZM171.799 107H170.826V100.578H171.799V107ZM170.744 98.8379C170.744 98.6152 170.799 98.4531 170.908 98.3516C171.018 98.2461 171.154 98.1934 171.318 98.1934C171.475 98.1934 171.609 98.2461 171.723 98.3516C171.836 98.457 171.893 98.6191 171.893 98.8379C171.893 99.0566 171.836 99.2207 171.723 99.3301C171.609 99.4355 171.475 99.4883 171.318 99.4883C171.154 99.4883 171.018 99.4355 170.908 99.3301C170.799 99.2207 170.744 99.0566 170.744 98.8379ZM179.404 103.783C179.404 104.83 179.141 105.648 178.613 106.238C178.086 106.824 177.357 107.117 176.428 107.117C175.854 107.117 175.344 106.982 174.898 106.713C174.453 106.443 174.109 106.057 173.867 105.553C173.625 105.049 173.504 104.459 173.504 103.783C173.504 102.736 173.766 101.922 174.289 101.34C174.812 100.754 175.539 100.461 176.469 100.461C177.367 100.461 178.08 100.76 178.607 101.357C179.139 101.955 179.404 102.764 179.404 103.783ZM174.512 103.783C174.512 104.604 174.676 105.229 175.004 105.658C175.332 106.088 175.814 106.303 176.451 106.303C177.088 106.303 177.57 106.09 177.898 105.664C178.23 105.234 178.396 104.607 178.396 103.783C178.396 102.967 178.23 102.348 177.898 101.926C177.57 101.5 177.084 101.287 176.439 101.287C175.803 101.287 175.322 101.496 174.998 101.914C174.674 102.332 174.512 102.955 174.512 103.783ZM182.029 100.578V104.744C182.029 105.268 182.148 105.658 182.387 105.916C182.625 106.174 182.998 106.303 183.506 106.303C184.178 106.303 184.668 106.119 184.977 105.752C185.289 105.385 185.445 104.785 185.445 103.953V100.578H186.418V107H185.615L185.475 106.139H185.422C185.223 106.455 184.945 106.697 184.59 106.865C184.238 107.033 183.836 107.117 183.383 107.117C182.602 107.117 182.016 106.932 181.625 106.561C181.238 106.189 181.045 105.596 181.045 104.779V100.578H182.029ZM192.629 105.248C192.629 105.846 192.406 106.307 191.961 106.631C191.516 106.955 190.891 107.117 190.086 107.117C189.234 107.117 188.57 106.982 188.094 106.713V105.811C188.402 105.967 188.732 106.09 189.084 106.18C189.439 106.27 189.781 106.314 190.109 106.314C190.617 106.314 191.008 106.234 191.281 106.074C191.555 105.91 191.691 105.662 191.691 105.33C191.691 105.08 191.582 104.867 191.363 104.691C191.148 104.512 190.727 104.301 190.098 104.059C189.5 103.836 189.074 103.643 188.82 103.479C188.57 103.311 188.383 103.121 188.258 102.91C188.137 102.699 188.076 102.447 188.076 102.154C188.076 101.631 188.289 101.219 188.715 100.918C189.141 100.613 189.725 100.461 190.467 100.461C191.158 100.461 191.834 100.602 192.494 100.883L192.148 101.674C191.504 101.408 190.92 101.275 190.396 101.275C189.936 101.275 189.588 101.348 189.354 101.492C189.119 101.637 189.002 101.836 189.002 102.09C189.002 102.262 189.045 102.408 189.131 102.529C189.221 102.65 189.363 102.766 189.559 102.875C189.754 102.984 190.129 103.143 190.684 103.35C191.445 103.627 191.959 103.906 192.225 104.188C192.494 104.469 192.629 104.822 192.629 105.248ZM205.52 107V102.822C205.52 102.311 205.41 101.928 205.191 101.674C204.973 101.416 204.633 101.287 204.172 101.287C203.566 101.287 203.119 101.461 202.83 101.809C202.541 102.156 202.396 102.691 202.396 103.414V107H201.424V102.822C201.424 102.311 201.314 101.928 201.096 101.674C200.877 101.416 200.535 101.287 200.07 101.287C199.461 101.287 199.014 101.471 198.729 101.838C198.447 102.201 198.307 102.799 198.307 103.631V107H197.334V100.578H198.125L198.283 101.457H198.33C198.514 101.145 198.771 100.9 199.104 100.725C199.439 100.549 199.814 100.461 200.229 100.461C201.232 100.461 201.889 100.824 202.197 101.551H202.244C202.436 101.215 202.713 100.949 203.076 100.754C203.439 100.559 203.854 100.461 204.318 100.461C205.045 100.461 205.588 100.648 205.947 101.023C206.311 101.395 206.492 101.99 206.492 102.811V107H205.52ZM211.215 107.117C210.266 107.117 209.516 106.828 208.965 106.25C208.418 105.672 208.145 104.869 208.145 103.842C208.145 102.807 208.398 101.984 208.906 101.375C209.418 100.766 210.104 100.461 210.963 100.461C211.768 100.461 212.404 100.727 212.873 101.258C213.342 101.785 213.576 102.482 213.576 103.35V103.965H209.152C209.172 104.719 209.361 105.291 209.721 105.682C210.084 106.072 210.594 106.268 211.25 106.268C211.941 106.268 212.625 106.123 213.301 105.834V106.701C212.957 106.85 212.631 106.955 212.322 107.018C212.018 107.084 211.648 107.117 211.215 107.117ZM210.951 101.275C210.436 101.275 210.023 101.443 209.715 101.779C209.41 102.115 209.23 102.58 209.176 103.174H212.533C212.533 102.561 212.396 102.092 212.123 101.768C211.85 101.439 211.459 101.275 210.951 101.275ZM223.426 107V102.822C223.426 102.311 223.316 101.928 223.098 101.674C222.879 101.416 222.539 101.287 222.078 101.287C221.473 101.287 221.025 101.461 220.736 101.809C220.447 102.156 220.303 102.691 220.303 103.414V107H219.33V102.822C219.33 102.311 219.221 101.928 219.002 101.674C218.783 101.416 218.441 101.287 217.977 101.287C217.367 101.287 216.92 101.471 216.635 101.838C216.354 102.201 216.213 102.799 216.213 103.631V107H215.24V100.578H216.031L216.189 101.457H216.236C216.42 101.145 216.678 100.9 217.01 100.725C217.346 100.549 217.721 100.461 218.135 100.461C219.139 100.461 219.795 100.824 220.104 101.551H220.15C220.342 101.215 220.619 100.949 220.982 100.754C221.346 100.559 221.76 100.461 222.225 100.461C222.951 100.461 223.494 100.648 223.854 101.023C224.217 101.395 224.398 101.99 224.398 102.811V107H223.426ZM231.951 103.783C231.951 104.83 231.688 105.648 231.16 106.238C230.633 106.824 229.904 107.117 228.975 107.117C228.4 107.117 227.891 106.982 227.445 106.713C227 106.443 226.656 106.057 226.414 105.553C226.172 105.049 226.051 104.459 226.051 103.783C226.051 102.736 226.312 101.922 226.836 101.34C227.359 100.754 228.086 100.461 229.016 100.461C229.914 100.461 230.627 100.76 231.154 101.357C231.686 101.955 231.951 102.764 231.951 103.783ZM227.059 103.783C227.059 104.604 227.223 105.229 227.551 105.658C227.879 106.088 228.361 106.303 228.998 106.303C229.635 106.303 230.117 106.09 230.445 105.664C230.777 105.234 230.943 104.607 230.943 103.783C230.943 102.967 230.777 102.348 230.445 101.926C230.117 101.5 229.631 101.287 228.986 101.287C228.35 101.287 227.869 101.496 227.545 101.914C227.221 102.332 227.059 102.955 227.059 103.783ZM236.592 100.461C236.877 100.461 237.133 100.484 237.359 100.531L237.225 101.434C236.959 101.375 236.725 101.346 236.521 101.346C236.002 101.346 235.557 101.557 235.186 101.979C234.818 102.4 234.635 102.926 234.635 103.555V107H233.662V100.578H234.465L234.576 101.768H234.623C234.861 101.35 235.148 101.027 235.484 100.801C235.82 100.574 236.189 100.461 236.592 100.461ZM239.533 107H238.561V100.578H239.533V107ZM238.479 98.8379C238.479 98.6152 238.533 98.4531 238.643 98.3516C238.752 98.2461 238.889 98.1934 239.053 98.1934C239.209 98.1934 239.344 98.2461 239.457 98.3516C239.57 98.457 239.627 98.6191 239.627 98.8379C239.627 99.0566 239.57 99.2207 239.457 99.3301C239.344 99.4355 239.209 99.4883 239.053 99.4883C238.889 99.4883 238.752 99.4355 238.643 99.3301C238.533 99.2207 238.479 99.0566 238.479 98.8379ZM244.309 107.117C243.359 107.117 242.609 106.828 242.059 106.25C241.512 105.672 241.238 104.869 241.238 103.842C241.238 102.807 241.492 101.984 242 101.375C242.512 100.766 243.197 100.461 244.057 100.461C244.861 100.461 245.498 100.727 245.967 101.258C246.436 101.785 246.67 102.482 246.67 103.35V103.965H242.246C242.266 104.719 242.455 105.291 242.814 105.682C243.178 106.072 243.688 106.268 244.344 106.268C245.035 106.268 245.719 106.123 246.395 105.834V106.701C246.051 106.85 245.725 106.955 245.416 107.018C245.111 107.084 244.742 107.117 244.309 107.117ZM244.045 101.275C243.529 101.275 243.117 101.443 242.809 101.779C242.504 102.115 242.324 102.58 242.27 103.174H245.627C245.627 102.561 245.49 102.092 245.217 101.768C244.943 101.439 244.553 101.275 244.045 101.275ZM252.477 105.248C252.477 105.846 252.254 106.307 251.809 106.631C251.363 106.955 250.738 107.117 249.934 107.117C249.082 107.117 248.418 106.982 247.941 106.713V105.811C248.25 105.967 248.58 106.09 248.932 106.18C249.287 106.27 249.629 106.314 249.957 106.314C250.465 106.314 250.855 106.234 251.129 106.074C251.402 105.91 251.539 105.662 251.539 105.33C251.539 105.08 251.43 104.867 251.211 104.691C250.996 104.512 250.574 104.301 249.945 104.059C249.348 103.836 248.922 103.643 248.668 103.479C248.418 103.311 248.23 103.121 248.105 102.91C247.984 102.699 247.924 102.447 247.924 102.154C247.924 101.631 248.137 101.219 248.562 100.918C248.988 100.613 249.572 100.461 250.314 100.461C251.006 100.461 251.682 100.602 252.342 100.883L251.996 101.674C251.352 101.408 250.768 101.275 250.244 101.275C249.783 101.275 249.436 101.348 249.201 101.492C248.967 101.637 248.85 101.836 248.85 102.09C248.85 102.262 248.893 102.408 248.979 102.529C249.068 102.65 249.211 102.766 249.406 102.875C249.602 102.984 249.977 103.143 250.531 103.35C251.293 103.627 251.807 103.906 252.072 104.188C252.342 104.469 252.477 104.822 252.477 105.248ZM108.037 116.473C108.881 116.473 109.535 116.762 110 117.34C110.469 117.914 110.703 118.729 110.703 119.783C110.703 120.838 110.467 121.658 109.994 122.244C109.525 122.826 108.873 123.117 108.037 123.117C107.619 123.117 107.236 123.041 106.889 122.889C106.545 122.732 106.256 122.494 106.021 122.174H105.951L105.746 123H105.049V113.883H106.021V116.098C106.021 116.594 106.006 117.039 105.975 117.434H106.021C106.475 116.793 107.146 116.473 108.037 116.473ZM107.896 117.287C107.232 117.287 106.754 117.479 106.461 117.861C106.168 118.24 106.021 118.881 106.021 119.783C106.021 120.686 106.172 121.332 106.473 121.723C106.773 122.109 107.256 122.303 107.92 122.303C108.518 122.303 108.963 122.086 109.256 121.652C109.549 121.215 109.695 120.588 109.695 119.771C109.695 118.936 109.549 118.312 109.256 117.902C108.963 117.492 108.51 117.287 107.896 117.287ZM115.121 123.117C114.172 123.117 113.422 122.828 112.871 122.25C112.324 121.672 112.051 120.869 112.051 119.842C112.051 118.807 112.305 117.984 112.812 117.375C113.324 116.766 114.01 116.461 114.869 116.461C115.674 116.461 116.311 116.727 116.779 117.258C117.248 117.785 117.482 118.482 117.482 119.35V119.965H113.059C113.078 120.719 113.268 121.291 113.627 121.682C113.99 122.072 114.5 122.268 115.156 122.268C115.848 122.268 116.531 122.123 117.207 121.834V122.701C116.863 122.85 116.537 122.955 116.229 123.018C115.924 123.084 115.555 123.117 115.121 123.117ZM114.857 117.275C114.342 117.275 113.93 117.443 113.621 117.779C113.316 118.115 113.137 118.58 113.082 119.174H116.439C116.439 118.561 116.303 118.092 116.029 117.768C115.756 117.439 115.365 117.275 114.857 117.275ZM122.041 117.334H120.406V123H119.434V117.334H118.285V116.895L119.434 116.543V116.186C119.434 114.607 120.123 113.818 121.502 113.818C121.842 113.818 122.24 113.887 122.697 114.023L122.445 114.803C122.07 114.682 121.75 114.621 121.484 114.621C121.117 114.621 120.846 114.744 120.67 114.99C120.494 115.232 120.406 115.623 120.406 116.162V116.578H122.041V117.334ZM128.756 119.783C128.756 120.83 128.492 121.648 127.965 122.238C127.438 122.824 126.709 123.117 125.779 123.117C125.205 123.117 124.695 122.982 124.25 122.713C123.805 122.443 123.461 122.057 123.219 121.553C122.977 121.049 122.855 120.459 122.855 119.783C122.855 118.736 123.117 117.922 123.641 117.34C124.164 116.754 124.891 116.461 125.82 116.461C126.719 116.461 127.432 116.76 127.959 117.357C128.49 117.955 128.756 118.764 128.756 119.783ZM123.863 119.783C123.863 120.604 124.027 121.229 124.355 121.658C124.684 122.088 125.166 122.303 125.803 122.303C126.439 122.303 126.922 122.09 127.25 121.664C127.582 121.234 127.748 120.607 127.748 119.783C127.748 118.967 127.582 118.348 127.25 117.926C126.922 117.5 126.436 117.287 125.791 117.287C125.154 117.287 124.674 117.496 124.35 117.914C124.025 118.332 123.863 118.955 123.863 119.783ZM133.396 116.461C133.682 116.461 133.938 116.484 134.164 116.531L134.029 117.434C133.764 117.375 133.529 117.346 133.326 117.346C132.807 117.346 132.361 117.557 131.99 117.979C131.623 118.4 131.439 118.926 131.439 119.555V123H130.467V116.578H131.27L131.381 117.768H131.428C131.666 117.35 131.953 117.027 132.289 116.801C132.625 116.574 132.994 116.461 133.396 116.461ZM138.078 123.117C137.129 123.117 136.379 122.828 135.828 122.25C135.281 121.672 135.008 120.869 135.008 119.842C135.008 118.807 135.262 117.984 135.77 117.375C136.281 116.766 136.967 116.461 137.826 116.461C138.631 116.461 139.268 116.727 139.736 117.258C140.205 117.785 140.439 118.482 140.439 119.35V119.965H136.016C136.035 120.719 136.225 121.291 136.584 121.682C136.947 122.072 137.457 122.268 138.113 122.268C138.805 122.268 139.488 122.123 140.164 121.834V122.701C139.82 122.85 139.494 122.955 139.186 123.018C138.881 123.084 138.512 123.117 138.078 123.117ZM137.814 117.275C137.299 117.275 136.887 117.443 136.578 117.779C136.273 118.115 136.094 118.58 136.039 119.174H139.396C139.396 118.561 139.26 118.092 138.986 117.768C138.713 117.439 138.322 117.275 137.814 117.275ZM144.201 116.578H145.244L146.65 120.24C146.959 121.076 147.15 121.68 147.225 122.051H147.271C147.322 121.852 147.428 121.512 147.588 121.031C147.752 120.547 148.283 119.062 149.182 116.578H150.225L147.465 123.891C147.191 124.613 146.871 125.125 146.504 125.426C146.141 125.73 145.693 125.883 145.162 125.883C144.865 125.883 144.572 125.85 144.283 125.783V125.004C144.498 125.051 144.738 125.074 145.004 125.074C145.672 125.074 146.148 124.699 146.434 123.949L146.791 123.035L144.201 116.578ZM156.811 119.783C156.811 120.83 156.547 121.648 156.02 122.238C155.492 122.824 154.764 123.117 153.834 123.117C153.26 123.117 152.75 122.982 152.305 122.713C151.859 122.443 151.516 122.057 151.273 121.553C151.031 121.049 150.91 120.459 150.91 119.783C150.91 118.736 151.172 117.922 151.695 117.34C152.219 116.754 152.945 116.461 153.875 116.461C154.773 116.461 155.486 116.76 156.014 117.357C156.545 117.955 156.811 118.764 156.811 119.783ZM151.918 119.783C151.918 120.604 152.082 121.229 152.41 121.658C152.738 122.088 153.221 122.303 153.857 122.303C154.494 122.303 154.977 122.09 155.305 121.664C155.637 121.234 155.803 120.607 155.803 119.783C155.803 118.967 155.637 118.348 155.305 117.926C154.977 117.5 154.49 117.287 153.846 117.287C153.209 117.287 152.729 117.496 152.404 117.914C152.08 118.332 151.918 118.955 151.918 119.783ZM159.436 116.578V120.744C159.436 121.268 159.555 121.658 159.793 121.916C160.031 122.174 160.404 122.303 160.912 122.303C161.584 122.303 162.074 122.119 162.383 121.752C162.695 121.385 162.852 120.785 162.852 119.953V116.578H163.824V123H163.021L162.881 122.139H162.828C162.629 122.455 162.352 122.697 161.996 122.865C161.645 123.033 161.242 123.117 160.789 123.117C160.008 123.117 159.422 122.932 159.031 122.561C158.645 122.189 158.451 121.596 158.451 120.779V116.578H159.436ZM171.576 123.117C170.646 123.117 169.926 122.832 169.414 122.262C168.906 121.688 168.652 120.877 168.652 119.83C168.652 118.756 168.91 117.926 169.426 117.34C169.945 116.754 170.684 116.461 171.641 116.461C171.949 116.461 172.258 116.494 172.566 116.561C172.875 116.627 173.117 116.705 173.293 116.795L172.994 117.621C172.779 117.535 172.545 117.465 172.291 117.41C172.037 117.352 171.812 117.322 171.617 117.322C170.312 117.322 169.66 118.154 169.66 119.818C169.66 120.607 169.818 121.213 170.135 121.635C170.455 122.057 170.928 122.268 171.553 122.268C172.088 122.268 172.637 122.152 173.199 121.922V122.783C172.77 123.006 172.229 123.117 171.576 123.117ZM177.658 116.461C177.943 116.461 178.199 116.484 178.426 116.531L178.291 117.434C178.025 117.375 177.791 117.346 177.588 117.346C177.068 117.346 176.623 117.557 176.252 117.979C175.885 118.4 175.701 118.926 175.701 119.555V123H174.729V116.578H175.531L175.643 117.768H175.689C175.928 117.35 176.215 117.027 176.551 116.801C176.887 116.574 177.256 116.461 177.658 116.461ZM182.34 123.117C181.391 123.117 180.641 122.828 180.09 122.25C179.543 121.672 179.27 120.869 179.27 119.842C179.27 118.807 179.523 117.984 180.031 117.375C180.543 116.766 181.229 116.461 182.088 116.461C182.893 116.461 183.529 116.727 183.998 117.258C184.467 117.785 184.701 118.482 184.701 119.35V119.965H180.277C180.297 120.719 180.486 121.291 180.846 121.682C181.209 122.072 181.719 122.268 182.375 122.268C183.066 122.268 183.75 122.123 184.426 121.834V122.701C184.082 122.85 183.756 122.955 183.447 123.018C183.143 123.084 182.773 123.117 182.34 123.117ZM182.076 117.275C181.561 117.275 181.148 117.443 180.84 117.779C180.535 118.115 180.355 118.58 180.301 119.174H183.658C183.658 118.561 183.521 118.092 183.248 117.768C182.975 117.439 182.584 117.275 182.076 117.275ZM190.314 123L190.121 122.086H190.074C189.754 122.488 189.434 122.762 189.113 122.906C188.797 123.047 188.4 123.117 187.924 123.117C187.287 123.117 186.787 122.953 186.424 122.625C186.064 122.297 185.885 121.83 185.885 121.225C185.885 119.928 186.922 119.248 188.996 119.186L190.086 119.15V118.752C190.086 118.248 189.977 117.877 189.758 117.639C189.543 117.396 189.197 117.275 188.721 117.275C188.186 117.275 187.58 117.439 186.904 117.768L186.605 117.023C186.922 116.852 187.268 116.717 187.643 116.619C188.021 116.521 188.4 116.473 188.779 116.473C189.545 116.473 190.111 116.643 190.479 116.982C190.85 117.322 191.035 117.867 191.035 118.617V123H190.314ZM188.117 122.314C188.723 122.314 189.197 122.148 189.541 121.816C189.889 121.484 190.062 121.02 190.062 120.422V119.842L189.09 119.883C188.316 119.91 187.758 120.031 187.414 120.246C187.074 120.457 186.904 120.787 186.904 121.236C186.904 121.588 187.01 121.855 187.221 122.039C187.436 122.223 187.734 122.314 188.117 122.314ZM195.119 122.314C195.291 122.314 195.457 122.303 195.617 122.279C195.777 122.252 195.904 122.225 195.998 122.197V122.941C195.893 122.992 195.736 123.033 195.529 123.064C195.326 123.1 195.143 123.117 194.979 123.117C193.736 123.117 193.115 122.463 193.115 121.154V117.334H192.195V116.865L193.115 116.461L193.525 115.09H194.088V116.578H195.951V117.334H194.088V121.113C194.088 121.5 194.18 121.797 194.363 122.004C194.547 122.211 194.799 122.314 195.119 122.314ZM200 123.117C199.051 123.117 198.301 122.828 197.75 122.25C197.203 121.672 196.93 120.869 196.93 119.842C196.93 118.807 197.184 117.984 197.691 117.375C198.203 116.766 198.889 116.461 199.748 116.461C200.553 116.461 201.189 116.727 201.658 117.258C202.127 117.785 202.361 118.482 202.361 119.35V119.965H197.938C197.957 120.719 198.146 121.291 198.506 121.682C198.869 122.072 199.379 122.268 200.035 122.268C200.727 122.268 201.41 122.123 202.086 121.834V122.701C201.742 122.85 201.416 122.955 201.107 123.018C200.803 123.084 200.434 123.117 200 123.117ZM199.736 117.275C199.221 117.275 198.809 117.443 198.5 117.779C198.195 118.115 198.016 118.58 197.961 119.174H201.318C201.318 118.561 201.182 118.092 200.908 117.768C200.635 117.439 200.244 117.275 199.736 117.275ZM211.537 123V118.846C211.537 118.322 211.418 117.932 211.18 117.674C210.941 117.416 210.568 117.287 210.061 117.287C209.389 117.287 208.896 117.469 208.584 117.832C208.271 118.195 208.115 118.795 208.115 119.631V123H207.143V116.578H207.934L208.092 117.457H208.139C208.338 117.141 208.617 116.896 208.977 116.725C209.336 116.549 209.736 116.461 210.178 116.461C210.951 116.461 211.533 116.648 211.924 117.023C212.314 117.395 212.51 117.99 212.51 118.811V123H211.537ZM217.227 123.117C216.277 123.117 215.527 122.828 214.977 122.25C214.43 121.672 214.156 120.869 214.156 119.842C214.156 118.807 214.41 117.984 214.918 117.375C215.43 116.766 216.115 116.461 216.975 116.461C217.779 116.461 218.416 116.727 218.885 117.258C219.354 117.785 219.588 118.482 219.588 119.35V119.965H215.164C215.184 120.719 215.373 121.291 215.732 121.682C216.096 122.072 216.605 122.268 217.262 122.268C217.953 122.268 218.637 122.123 219.312 121.834V122.701C218.969 122.85 218.643 122.955 218.334 123.018C218.029 123.084 217.66 123.117 217.227 123.117ZM216.963 117.275C216.447 117.275 216.035 117.443 215.727 117.779C215.422 118.115 215.242 118.58 215.188 119.174H218.545C218.545 118.561 218.408 118.092 218.135 117.768C217.861 117.439 217.471 117.275 216.963 117.275ZM226.496 123L225.318 119.232C225.244 119.002 225.105 118.479 224.902 117.662H224.855C224.699 118.346 224.562 118.873 224.445 119.244L223.232 123H222.107L220.355 116.578H221.375C221.789 118.191 222.104 119.42 222.318 120.264C222.537 121.107 222.662 121.676 222.693 121.969H222.74C222.783 121.746 222.852 121.459 222.945 121.107C223.043 120.752 223.127 120.471 223.197 120.264L224.375 116.578H225.43L226.578 120.264C226.797 120.936 226.945 121.5 227.023 121.957H227.07C227.086 121.816 227.127 121.6 227.193 121.307C227.264 121.014 227.672 119.438 228.418 116.578H229.426L227.65 123H226.496ZM231.471 120.639H230.855L230.557 114.434H231.77L231.471 120.639ZM230.451 122.379C230.451 121.848 230.686 121.582 231.154 121.582C231.381 121.582 231.555 121.65 231.676 121.787C231.801 121.924 231.863 122.121 231.863 122.379C231.863 122.629 231.801 122.824 231.676 122.965C231.551 123.102 231.377 123.17 231.154 123.17C230.951 123.17 230.783 123.109 230.65 122.988C230.518 122.863 230.451 122.66 230.451 122.379ZM234.682 120.639H234.066L233.768 114.434H234.98L234.682 120.639ZM233.662 122.379C233.662 121.848 233.896 121.582 234.365 121.582C234.592 121.582 234.766 121.65 234.887 121.787C235.012 121.924 235.074 122.121 235.074 122.379C235.074 122.629 235.012 122.824 234.887 122.965C234.762 123.102 234.588 123.17 234.365 123.17C234.162 123.17 233.994 123.109 233.861 122.988C233.729 122.863 233.662 122.66 233.662 122.379Z" fill="white"/>
<path d="M185.036 160.891L187.36 166.691L189.685 160.891H190.9V168H189.963V165.231L190.051 162.243L187.717 168H186.999L184.67 162.258L184.763 165.231V168H183.825V160.891H185.036ZM195.676 168C195.624 167.896 195.581 167.71 195.549 167.443C195.129 167.88 194.628 168.098 194.045 168.098C193.524 168.098 193.096 167.951 192.761 167.658C192.429 167.362 192.263 166.988 192.263 166.535C192.263 165.985 192.471 165.559 192.888 165.256C193.308 164.95 193.897 164.797 194.655 164.797H195.534V164.382C195.534 164.066 195.44 163.815 195.251 163.63C195.062 163.441 194.784 163.347 194.416 163.347C194.094 163.347 193.824 163.428 193.605 163.591C193.387 163.754 193.278 163.951 193.278 164.182H192.37C192.37 163.918 192.463 163.664 192.648 163.42C192.837 163.173 193.091 162.977 193.41 162.834C193.732 162.691 194.086 162.619 194.47 162.619C195.078 162.619 195.555 162.772 195.9 163.078C196.245 163.381 196.424 163.799 196.438 164.333V166.765C196.438 167.25 196.499 167.635 196.623 167.922V168H195.676ZM194.177 167.312C194.46 167.312 194.729 167.238 194.982 167.092C195.236 166.945 195.42 166.755 195.534 166.521V165.437H194.826C193.719 165.437 193.166 165.76 193.166 166.408C193.166 166.691 193.26 166.913 193.449 167.072C193.638 167.232 193.881 167.312 194.177 167.312ZM197.634 165.314C197.634 164.504 197.826 163.853 198.21 163.361C198.594 162.867 199.097 162.619 199.719 162.619C200.337 162.619 200.827 162.831 201.188 163.254V160.5H202.092V168H201.262L201.218 167.434C200.856 167.876 200.354 168.098 199.709 168.098C199.097 168.098 198.597 167.847 198.21 167.346C197.826 166.844 197.634 166.19 197.634 165.383V165.314ZM198.537 165.417C198.537 166.016 198.661 166.485 198.908 166.823C199.156 167.162 199.497 167.331 199.934 167.331C200.507 167.331 200.925 167.074 201.188 166.56V164.133C200.918 163.635 200.503 163.386 199.943 163.386C199.501 163.386 199.156 163.557 198.908 163.898C198.661 164.24 198.537 164.746 198.537 165.417ZM205.69 168.098C204.974 168.098 204.392 167.863 203.942 167.395C203.493 166.923 203.269 166.293 203.269 165.505V165.339C203.269 164.815 203.368 164.348 203.566 163.938C203.768 163.524 204.048 163.202 204.406 162.971C204.768 162.736 205.158 162.619 205.578 162.619C206.265 162.619 206.799 162.845 207.18 163.298C207.561 163.75 207.751 164.398 207.751 165.241V165.617H204.172C204.185 166.138 204.336 166.56 204.626 166.882C204.919 167.201 205.29 167.36 205.739 167.36C206.058 167.36 206.328 167.295 206.55 167.165C206.771 167.035 206.965 166.862 207.131 166.647L207.683 167.077C207.24 167.757 206.576 168.098 205.69 168.098ZM205.578 163.361C205.214 163.361 204.908 163.495 204.66 163.762C204.413 164.025 204.26 164.396 204.201 164.875H206.848V164.807C206.822 164.348 206.698 163.993 206.477 163.742C206.255 163.488 205.956 163.361 205.578 163.361ZM215.959 166.755L216.975 162.717H217.878L216.34 168H215.607L214.323 163.996L213.073 168H212.341L210.808 162.717H211.706L212.746 166.672L213.977 162.717H214.704L215.959 166.755ZM219.782 168H218.879V162.717H219.782V168ZM218.806 161.315C218.806 161.169 218.85 161.045 218.938 160.944C219.029 160.843 219.162 160.793 219.338 160.793C219.514 160.793 219.647 160.843 219.738 160.944C219.829 161.045 219.875 161.169 219.875 161.315C219.875 161.462 219.829 161.584 219.738 161.682C219.647 161.779 219.514 161.828 219.338 161.828C219.162 161.828 219.029 161.779 218.938 161.682C218.85 161.584 218.806 161.462 218.806 161.315ZM222.458 161.438V162.717H223.444V163.415H222.458V166.691C222.458 166.903 222.502 167.062 222.59 167.17C222.678 167.274 222.827 167.326 223.039 167.326C223.143 167.326 223.286 167.307 223.469 167.268V168C223.231 168.065 223 168.098 222.775 168.098C222.372 168.098 222.067 167.976 221.862 167.731C221.657 167.487 221.555 167.141 221.555 166.691V163.415H220.593V162.717H221.555V161.438H222.458ZM225.407 163.356C225.808 162.865 226.328 162.619 226.97 162.619C228.086 162.619 228.649 163.249 228.659 164.509V168H227.756V164.504C227.753 164.123 227.665 163.841 227.492 163.659C227.323 163.477 227.058 163.386 226.696 163.386C226.403 163.386 226.146 163.464 225.925 163.62C225.703 163.776 225.531 163.981 225.407 164.235V168H224.504V160.5H225.407V163.356ZM251.848 165.417C251.848 166.224 251.662 166.874 251.291 167.365C250.92 167.854 250.422 168.098 249.797 168.098C249.13 168.098 248.614 167.862 248.249 167.39L248.205 168H247.375V160.5H248.278V163.298C248.643 162.845 249.146 162.619 249.787 162.619C250.428 162.619 250.931 162.862 251.296 163.347C251.664 163.832 251.848 164.496 251.848 165.339V165.417ZM250.944 165.314C250.944 164.699 250.826 164.224 250.588 163.889C250.35 163.553 250.008 163.386 249.562 163.386C248.967 163.386 248.539 163.662 248.278 164.216V166.501C248.555 167.054 248.986 167.331 249.572 167.331C250.005 167.331 250.342 167.163 250.583 166.828C250.824 166.493 250.944 165.988 250.944 165.314ZM254.66 166.677L255.891 162.717H256.857L254.733 168.815C254.405 169.694 253.882 170.134 253.166 170.134L252.995 170.119L252.658 170.056V169.323L252.902 169.343C253.208 169.343 253.446 169.281 253.615 169.157C253.788 169.034 253.929 168.807 254.04 168.479L254.24 167.941L252.355 162.717H253.342L254.66 166.677ZM261.823 165.759L261.96 166.696L262.16 165.852L263.566 160.891H264.357L265.729 165.852L265.925 166.711L266.076 165.754L267.18 160.891H268.122L266.398 168H265.544L264.079 162.819L263.967 162.277L263.854 162.819L262.336 168H261.481L259.763 160.891H260.7L261.823 165.759ZM271.062 168.098C270.345 168.098 269.763 167.863 269.313 167.395C268.864 166.923 268.64 166.293 268.64 165.505V165.339C268.64 164.815 268.739 164.348 268.938 163.938C269.139 163.524 269.419 163.202 269.777 162.971C270.139 162.736 270.529 162.619 270.949 162.619C271.636 162.619 272.17 162.845 272.551 163.298C272.932 163.75 273.122 164.398 273.122 165.241V165.617H269.543C269.556 166.138 269.707 166.56 269.997 166.882C270.29 167.201 270.661 167.36 271.11 167.36C271.429 167.36 271.7 167.295 271.921 167.165C272.142 167.035 272.336 166.862 272.502 166.647L273.054 167.077C272.611 167.757 271.947 168.098 271.062 168.098ZM270.949 163.361C270.585 163.361 270.279 163.495 270.031 163.762C269.784 164.025 269.631 164.396 269.572 164.875H272.219V164.807C272.193 164.348 272.069 163.993 271.848 163.742C271.626 163.488 271.327 163.361 270.949 163.361ZM275.153 168H274.25V160.5H275.153V168ZM277.585 168H276.682V160.5H277.585V168ZM279.89 162.717L279.919 163.381C280.323 162.873 280.85 162.619 281.501 162.619C282.618 162.619 283.181 163.249 283.19 164.509V168H282.287V164.504C282.284 164.123 282.196 163.841 282.023 163.659C281.854 163.477 281.589 163.386 281.228 163.386C280.935 163.386 280.677 163.464 280.456 163.62C280.235 163.776 280.062 163.981 279.938 164.235V168H279.035V162.717H279.89ZM286.745 168.098C286.029 168.098 285.446 167.863 284.997 167.395C284.548 166.923 284.323 166.293 284.323 165.505V165.339C284.323 164.815 284.423 164.348 284.621 163.938C284.823 163.524 285.103 163.202 285.461 162.971C285.822 162.736 286.213 162.619 286.633 162.619C287.32 162.619 287.854 162.845 288.234 163.298C288.615 163.75 288.806 164.398 288.806 165.241V165.617H285.227C285.24 166.138 285.391 166.56 285.681 166.882C285.974 167.201 286.345 167.36 286.794 167.36C287.113 167.36 287.383 167.295 287.604 167.165C287.826 167.035 288.02 166.862 288.186 166.647L288.737 167.077C288.295 167.757 287.631 168.098 286.745 168.098ZM286.633 163.361C286.268 163.361 285.962 163.495 285.715 163.762C285.467 164.025 285.314 164.396 285.256 164.875H287.902V164.807C287.876 164.348 287.753 163.993 287.531 163.742C287.31 163.488 287.01 163.361 286.633 163.361ZM292.932 166.599C292.932 166.354 292.839 166.166 292.653 166.032C292.471 165.896 292.15 165.778 291.691 165.681C291.236 165.583 290.873 165.466 290.603 165.329C290.336 165.192 290.137 165.03 290.007 164.841C289.88 164.652 289.816 164.427 289.816 164.167C289.816 163.734 289.999 163.368 290.363 163.068C290.731 162.769 291.2 162.619 291.77 162.619C292.368 162.619 292.854 162.774 293.225 163.083C293.599 163.392 293.786 163.788 293.786 164.27H292.878C292.878 164.022 292.772 163.809 292.561 163.63C292.352 163.451 292.089 163.361 291.77 163.361C291.441 163.361 291.184 163.433 290.998 163.576C290.812 163.719 290.72 163.907 290.72 164.138C290.72 164.356 290.806 164.52 290.979 164.631C291.151 164.742 291.462 164.847 291.911 164.948C292.364 165.049 292.73 165.17 293.01 165.31C293.29 165.45 293.496 165.619 293.63 165.817C293.767 166.013 293.835 166.252 293.835 166.535C293.835 167.007 293.646 167.386 293.269 167.673C292.891 167.956 292.401 168.098 291.799 168.098C291.376 168.098 291.001 168.023 290.676 167.873C290.35 167.723 290.095 167.515 289.909 167.248C289.727 166.978 289.636 166.687 289.636 166.374H290.539C290.555 166.677 290.676 166.918 290.9 167.097C291.128 167.272 291.428 167.36 291.799 167.36C292.141 167.36 292.414 167.292 292.619 167.155C292.827 167.015 292.932 166.83 292.932 166.599ZM298.088 166.599C298.088 166.354 297.995 166.166 297.81 166.032C297.627 165.896 297.307 165.778 296.848 165.681C296.392 165.583 296.029 165.466 295.759 165.329C295.492 165.192 295.293 165.03 295.163 164.841C295.036 164.652 294.973 164.427 294.973 164.167C294.973 163.734 295.155 163.368 295.52 163.068C295.887 162.769 296.356 162.619 296.926 162.619C297.525 162.619 298.01 162.774 298.381 163.083C298.755 163.392 298.942 163.788 298.942 164.27H298.034C298.034 164.022 297.928 163.809 297.717 163.63C297.508 163.451 297.245 163.361 296.926 163.361C296.597 163.361 296.34 163.433 296.154 163.576C295.969 163.719 295.876 163.907 295.876 164.138C295.876 164.356 295.962 164.52 296.135 164.631C296.307 164.742 296.618 164.847 297.067 164.948C297.52 165.049 297.886 165.17 298.166 165.31C298.446 165.45 298.653 165.619 298.786 165.817C298.923 166.013 298.991 166.252 298.991 166.535C298.991 167.007 298.802 167.386 298.425 167.673C298.047 167.956 297.557 168.098 296.955 168.098C296.532 168.098 296.158 168.023 295.832 167.873C295.507 167.723 295.251 167.515 295.065 167.248C294.883 166.978 294.792 166.687 294.792 166.374H295.695C295.712 166.677 295.832 166.918 296.057 167.097C296.285 167.272 296.584 167.36 296.955 167.36C297.297 167.36 297.57 167.292 297.775 167.155C297.984 167.015 298.088 166.83 298.088 166.599ZM308.02 165.744C307.932 166.496 307.653 167.077 307.185 167.487C306.719 167.894 306.099 168.098 305.324 168.098C304.484 168.098 303.811 167.797 303.303 167.194C302.798 166.592 302.546 165.786 302.546 164.777V164.094C302.546 163.433 302.663 162.852 302.897 162.351C303.135 161.849 303.47 161.465 303.903 161.198C304.336 160.928 304.838 160.793 305.407 160.793C306.162 160.793 306.768 161.005 307.224 161.428C307.679 161.848 307.945 162.43 308.02 163.176H307.077C306.996 162.609 306.818 162.199 306.545 161.945C306.275 161.691 305.896 161.564 305.407 161.564C304.808 161.564 304.338 161.786 303.996 162.229C303.658 162.671 303.488 163.301 303.488 164.118V164.807C303.488 165.578 303.649 166.192 303.972 166.647C304.294 167.103 304.745 167.331 305.324 167.331C305.845 167.331 306.244 167.214 306.521 166.979C306.8 166.742 306.986 166.33 307.077 165.744H308.02ZM311.354 168.098C310.638 168.098 310.056 167.863 309.606 167.395C309.157 166.923 308.933 166.293 308.933 165.505V165.339C308.933 164.815 309.032 164.348 309.23 163.938C309.432 163.524 309.712 163.202 310.07 162.971C310.432 162.736 310.822 162.619 311.242 162.619C311.929 162.619 312.463 162.845 312.844 163.298C313.225 163.75 313.415 164.398 313.415 165.241V165.617H309.836C309.849 166.138 310 166.56 310.29 166.882C310.583 167.201 310.954 167.36 311.403 167.36C311.722 167.36 311.993 167.295 312.214 167.165C312.435 167.035 312.629 166.862 312.795 166.647L313.347 167.077C312.904 167.757 312.24 168.098 311.354 168.098ZM311.242 163.361C310.878 163.361 310.572 163.495 310.324 163.762C310.077 164.025 309.924 164.396 309.865 164.875H312.512V164.807C312.486 164.348 312.362 163.993 312.141 163.742C311.919 163.488 311.62 163.361 311.242 163.361ZM315.319 162.717L315.349 163.381C315.752 162.873 316.28 162.619 316.931 162.619C318.047 162.619 318.61 163.249 318.62 164.509V168H317.717V164.504C317.714 164.123 317.626 163.841 317.453 163.659C317.284 163.477 317.019 163.386 316.657 163.386C316.364 163.386 316.107 163.464 315.886 163.62C315.664 163.776 315.492 163.981 315.368 164.235V168H314.465V162.717H315.319ZM321.208 161.438V162.717H322.194V163.415H321.208V166.691C321.208 166.903 321.252 167.062 321.34 167.17C321.428 167.274 321.577 167.326 321.789 167.326C321.893 167.326 322.036 167.307 322.219 167.268V168C321.981 168.065 321.75 168.098 321.525 168.098C321.122 168.098 320.817 167.976 320.612 167.731C320.407 167.487 320.305 167.141 320.305 166.691V163.415H319.343V162.717H320.305V161.438H321.208ZM325.808 163.527C325.671 163.505 325.523 163.493 325.363 163.493C324.771 163.493 324.369 163.745 324.157 164.25V168H323.254V162.717H324.133L324.147 163.327C324.444 162.855 324.864 162.619 325.407 162.619C325.583 162.619 325.716 162.642 325.808 162.688V163.527ZM328.737 168.098C328.021 168.098 327.438 167.863 326.989 167.395C326.54 166.923 326.315 166.293 326.315 165.505V165.339C326.315 164.815 326.415 164.348 326.613 163.938C326.815 163.524 327.095 163.202 327.453 162.971C327.814 162.736 328.205 162.619 328.625 162.619C329.312 162.619 329.846 162.845 330.227 163.298C330.607 163.75 330.798 164.398 330.798 165.241V165.617H327.219C327.232 166.138 327.383 166.56 327.673 166.882C327.966 167.201 328.337 167.36 328.786 167.36C329.105 167.36 329.375 167.295 329.597 167.165C329.818 167.035 330.012 166.862 330.178 166.647L330.729 167.077C330.287 167.757 329.623 168.098 328.737 168.098ZM328.625 163.361C328.26 163.361 327.954 163.495 327.707 163.762C327.46 164.025 327.307 164.396 327.248 164.875H329.895V164.807C329.868 164.348 329.745 163.993 329.523 163.742C329.302 163.488 329.003 163.361 328.625 163.361Z" fill="white"/>
<path d="M238 167.896L237.396 167.346C235.25 165.4 233.833 164.117 233.833 162.542C233.833 161.258 234.842 160.25 236.125 160.25C236.85 160.25 237.546 160.588 238 161.121C238.454 160.588 239.15 160.25 239.875 160.25C241.158 160.25 242.167 161.258 242.167 162.542C242.167 164.117 240.75 165.4 238.604 167.35L238 167.896Z" fill="#E93E3E"/>
<g clip-path="url(#clip0)">
<path d="M60.9508 52.6092L57.4064 50.7479C44.8272 44.1731 36.5241 39.8385 34.5779 32.3705C32.9921 26.2854 36.5272 20.2582 42.6123 18.6724C46.05 17.7765 49.7664 18.517 52.579 20.4847C54.0734 17.3946 56.9558 14.9345 60.3934 14.0386C66.4785 12.4528 72.5057 15.9879 74.0915 22.073C76.0377 29.5411 70.9062 37.3768 63.141 49.2745L60.9508 52.6092Z" fill="white" fill-opacity="0.5"/>
</g>
<g clip-path="url(#clip1)">
<path d="M259.684 66.701L258.772 66.2218C255.533 64.529 253.395 63.413 252.894 61.4902C252.486 59.9234 253.396 58.3716 254.963 57.9633C255.848 57.7327 256.805 57.9233 257.529 58.4299C257.914 57.6343 258.656 57.0009 259.541 56.7703C261.108 56.362 262.659 57.2722 263.068 58.8389C263.569 60.7617 262.248 62.7791 260.248 65.8425L259.684 66.701Z" fill="white" fill-opacity="0.5"/>
</g>
<g clip-path="url(#clip2)">
<path d="M89.476 67.1206L92.9906 67.6431L90.9126 64.7606L92.4959 61.5766L89.1141 62.6629L86.5805 60.184L86.5612 63.7285L83.4107 65.369L86.7879 66.4824L87.3759 69.9868L89.476 67.1206Z" fill="white" fill-opacity="0.5"/>
</g>
<g clip-path="url(#clip3)">
<path d="M293.446 106.171L298.688 111.586L298.909 104.052L305.682 100.736L298.588 98.201L297.521 90.7593L292.916 96.701L285.496 95.3976L289.744 101.629L286.213 108.287L293.446 106.171Z" fill="white" fill-opacity="0.5"/>
</g>
<g clip-path="url(#clip4)">
<path d="M317.405 26.0738L297.819 15.6936C296.473 14.98 294.799 15.5043 294.086 16.8509L282.396 38.8787L289.887 36.5772L307.025 45.6599C308.372 46.3735 310.057 45.8557 310.771 44.5091L318.556 29.8196C319.27 28.4731 318.752 26.7875 317.405 26.0738ZM307.172 39.4658L292.482 31.6807L293.78 29.2324L308.47 37.0176L307.172 39.4658ZM309.118 35.7935L294.429 28.0083L295.726 25.5601L310.416 33.3452L309.118 35.7935ZM311.065 32.1211L296.375 24.3359L297.673 21.8877L312.362 29.6728L311.065 32.1211Z" fill="white" fill-opacity="0.5"/>
</g>
<g clip-path="url(#clip5)">
<path d="M31.6779 80.9121L22.6489 84.0459C22.0281 84.2613 21.7022 84.9435 21.9176 85.5643L25.4375 95.7239L26.9113 92.6832L34.8117 89.9412C35.4325 89.7257 35.7641 89.0416 35.5486 88.4208L33.1983 81.649C32.9829 81.0283 32.2987 80.6967 31.6779 80.9121ZM32.8996 88.0756L26.1279 90.426L25.7361 89.2973L32.5079 86.947L32.8996 88.0756ZM32.3121 86.3827L25.5403 88.733L25.1486 87.6044L31.9203 85.2541L32.3121 86.3827ZM31.7245 84.6897L24.9527 87.0401L24.561 85.9114L31.3328 83.5611L31.7245 84.6897Z" fill="white" fill-opacity="0.5"/>
</g>
<g clip-path="url(#clip6)">
<path d="M54.5968 135.881C56.8073 136.451 59.0612 135.121 59.6311 132.91C60.2009 130.7 58.8709 128.446 56.6604 127.876C54.4499 127.306 52.196 128.636 51.6261 130.847C51.0563 133.057 52.3863 135.311 54.5968 135.881Z" fill="white" fill-opacity="0.5"/>
<path d="M55.1006 118.404L52.1668 120.315L48.2019 119.293C46.826 118.938 45.4101 119.774 45.0554 121.15L41.1861 136.159C40.8315 137.535 41.667 138.951 43.0428 139.305L63.0552 144.464C64.431 144.819 65.8469 143.983 66.2016 142.608L70.0709 127.598C70.4256 126.223 69.5901 124.807 68.2143 124.452L64.2493 123.43L62.6053 120.338L55.1006 118.404ZM54.0163 138.132C50.5642 137.243 48.4847 133.719 49.3747 130.266C50.2646 126.814 53.7886 124.735 57.2407 125.625C60.6929 126.515 62.7723 130.039 61.8824 133.491C60.9925 136.943 57.4685 139.022 54.0163 138.132Z" fill="white" fill-opacity="0.5"/>
</g>
<defs>
<filter id="filter0_d" x="104.2" y="25.736" width="131.283" height="41.264" filterUnits="userSpaceOnUse" color-interpolation-filters="sRGB">
<feFlood flood-opacity="0" result="BackgroundImageFix"/>
<feColorMatrix in="SourceAlpha" type="matrix" values="0 0 0 0 0 0 0 0 0 0 0 0 0 0 0 0 0 0 127 0" result="hardAlpha"/>
<feOffset/>
<feGaussianBlur stdDeviation="2"/>
<feComposite in2="hardAlpha" operator="out"/>
<feColorMatrix type="matrix" values="0 0 0 0 0 0 0 0 0 0 0 0 0 0 0 0 0 0 0.25 0"/>
<feBlend mode="normal" in2="BackgroundImageFix" result="effect1_dropShadow"/>
<feBlend mode="normal" in="SourceGraphic" in2="effect1_dropShadow" result="shape"/>
</filter>
<linearGradient id="paint0_linear" x1="320.015" y1="-1.51579e-05" x2="-37.5748" y2="182.973" gradientUnits="userSpaceOnUse">
<stop stop-color="#1017D0" stop-opacity="0.85"/>
<stop offset="1" stop-color="#0094FF" stop-opacity="0.9"/>
</linearGradient>
<clipPath id="clip0">
<rect width="49" height="49" fill="white" transform="translate(26.25 16.6069) rotate(-14.6066)"/>
</clipPath>
<clipPath id="clip1">
<rect width="12.616" height="12.616" fill="white" transform="translate(250.75 57.4315) rotate(-14.6066)"/>
</clipPath>
<clipPath id="clip2">
<rect width="11.814" height="11.814" fill="white" transform="translate(80.75 61.5508) rotate(-22.6566)"/>
</clipPath>
<clipPath id="clip3">
<rect width="25.0561" height="25.0561" fill="white" transform="translate(285.943 85.5378) rotate(14.8124)"/>
</clipPath>
<clipPath id="clip4">
<rect width="33.25" height="33.25" fill="white" transform="translate(294.22 10.6503) rotate(27.9227)"/>
</clipPath>
<clipPath id="clip5">
<rect width="14.3361" height="14.3361" fill="white" transform="translate(20 83.7007) rotate(-19.1407)"/>
</clipPath>
<clipPath id="clip6">
<rect width="31" height="31" fill="white" transform="translate(44.4885 113) rotate(14.4558)"/>
</clipPath>
</defs>
</svg>
